<svg xmlns="http://www.w3.org/2000/svg" width="47" height="52.87" viewBox="0 0 47 52.87"><defs><style>.a{fill:#fff;}</style></defs><g transform="translate(-71 -8)"><g transform="translate(-61.1 -158.647)"><rect class="a" width="1.441" height="14.941" transform="translate(132.1 169.088)"/><path class="a" d="M148.787,186.347v5.832h1.442v-5.832a5.636,5.636,0,0,0-5.636-5.636,5.52,5.52,0,0,0-4.194,1.9v-1.835h-1.441v11.4H140.4v-5.832a4.194,4.194,0,0,1,8.388,0Z" transform="translate(-3.974 -8.15)"/><path class="a" d="M166.524,184.028h1.441v-9.96h1.575l4.044,9.4-1.988,4.028,1.293.636,7.636-15.508h-1.606l-4.493,9.123-3.92-9.116-2.541,0a5.326,5.326,0,0,1,5.265-4.534v-1.442a6.664,6.664,0,0,0-6.692,5.979h-2.023v1.442h2.009Z" transform="translate(-18.785)"/><path class="a" d="M174.507,205.37c.244-.99.385-1.43-.555-2.1a16.206,16.206,0,0,0-4.084-2.1c-.707-.293-1.076.307-1.252.926-1.544,5.448-5.557,17.671-10.016,21.1-.583.448-1.085.527-1.312-.2-1.094-3.457-.73-11.352-.86-14.626-.021-.541-.013-1.187-.594-1.535a20.941,20.941,0,0,0-3.716-1.51c-.569-.114-.8,0-.9.578-1.552,8.779-3.431,16.2-3.8,25.337-.111,2.782.867,3.9,3.506,4.5.6.136.933.021.875-1.009-.26-4.622,1.171-13.067,1.956-17.847a51.774,51.774,0,0,0,.545,5.99c.212,1.066,1.911,3.131,3.564,3.218,4.993.262,7.527-7.422,9.356-11.633-.81,6.869-2.227,13.747-2.227,20.692,0,2.533,1.3,3.465,3.44,4.184,1.131.38,1.29,0,1.248-.935C169.225,228.439,172.161,214.889,174.507,205.37Z" transform="translate(-8.872 -19.957)"/><path class="a" d="M222.345,235.995c-2.637,2.882-8.515,10.383-9.925,10.348a17.161,17.161,0,0,1,.012-5.534c1.76-1.295,6.594-4.5,7.026-6.581.9-4.36-2.924-6.616-5.907-4.632-4.424,2.942-7.731,15.827-5.023,19.084a5.745,5.745,0,0,0,7.7-2.052l6.517-10.326C222.978,235.935,222.642,235.671,222.345,235.995Zm-7.329-3.471c1.206-1.9,2.2,4.2-2.343,6.654A20.982,20.982,0,0,1,215.015,232.524Z" transform="translate(-43.723 -36.059)"/></g></g></svg>